# xmcd
#
# Track frame offsets:
#	150
#	14430
#	41542
#	54535
#	64637
#	80962
#	92320
#	105795
#	120262
#	130567
#
# Disc length: 1895 seconds
#
# Revision: 1
# Processed by: cddbd v1.4PL0 Copyright (c) Steve Scherf et al.
# Submitted via: CDmax 1.8
#
DISCID=6d07650a
DTITLE=Lorne Greene - (best of)
DYEAR=1991
DGENRE=Country
TTITLE0=The Man
TTITLE1=Saga of the Ponderosa
TTITLE2=Cool Water
TTITLE3=Mule Train
TTITLE4=Ringo
TTITLE5=Ghost Riders in the Sky
TTITLE6=Five Card Stud
TTITLE7=Sixteen Tons
TTITLE8=Bring on the Dancin' Girls
TTITLE9=Nine Pound Hammer
EXTD=RCA - BMG\n17225-2\nUPC: 6192-17225-2
EXTT0=
EXTT1=
EXTT2=
EXTT3=
EXTT4=
EXTT5=
EXTT6=
EXTT7=
EXTT8=
EXTT9=
PLAYORDER=
